<?xml version="1.0" encoding="iso-8859-1"?>
<!-- Generator: Adobe Illustrator 19.0.0, SVG Export Plug-In . SVG Version: 6.00 Build 0)  -->
<svg version="1.1" id="Capa_1" xmlns="http://www.w3.org/2000/svg" xmlns:xlink="http://www.w3.org/1999/xlink" x="0px" y="0px"
	 viewBox="0 0 511 511" style="enable-background:new 0 0 511 511;" xml:space="preserve">
<g>
	<path d="M503.5,388H487v-32.5c0-4.142-3.358-7.5-7.5-7.5H471v-33h8.5c4.142,0,7.5-3.358,7.5-7.5v-80c0-4.142-3.358-7.5-7.5-7.5H471
		v-41h0.5c4.142,0,7.5-3.358,7.5-7.5s-3.358-7.5-7.5-7.5H471v-25h32.5c4.142,0,7.5-3.358,7.5-7.5s-3.358-7.5-7.5-7.5H319v-8.5
		c0-4.142-3.358-7.5-7.5-7.5h-96c-4.142,0-7.5,3.358-7.5,7.5v8.5H23.5c-4.142,0-7.5,3.358-7.5,7.5V220h-0.5
		c-4.142,0-7.5,3.358-7.5,7.5v80c0,4.142,3.358,7.5,7.5,7.5H16v73H7.5c-4.142,0-7.5,3.358-7.5,7.5s3.358,7.5,7.5,7.5h496
		c4.142,0,7.5-3.358,7.5-7.5S507.642,388,503.5,388z M472,388H303v-25h169V388z M319,220v-41h65v41H319z M456,348H319v-33h137V348z
		 M472,300H319v-65h153V300z M456,220h-57v-41h57V220z M456,164h-57v-25h57V164z M384,139v25h-65v-25H384z M223,123h81v104.5v80V348
		h-8.5c-4.142,0-7.5,3.358-7.5,7.5V388h-65V123z M23,300v-65h121v25h-8.5c-4.142,0-7.5,3.358-7.5,7.5s3.358,7.5,7.5,7.5h8.5v25H23z
		 M168,195v65h-9v-32.5c0-4.142-3.358-7.5-7.5-7.5H151v-25H168z M208,195v65h-25v-65H208z M159,292v-17h49v17H159z M136,356H87v-41
		h49V356z M136,220H87v-25h49V220z M72,315v73H55v-72.5c0-0.169-0.014-0.334-0.025-0.5H72z M87,371h49v17H87V371z M151,315h0.5
		c4.142,0,7.5-3.358,7.5-7.5V307h1v81h-9V315z M175,307h33v81h-33V307z M31,139h177v41H79.5c-4.142,0-7.5,3.358-7.5,7.5V220H31V139z
		 M31,315h9.025c-0.011,0.166-0.025,0.331-0.025,0.5V388h-9V315z"/>
	<path d="M191.5,171c1.97,0,3.91-0.8,5.3-2.2c1.4-1.39,2.2-3.33,2.2-5.3s-0.8-3.91-2.2-5.3c-1.39-1.4-3.33-2.2-5.3-2.2
		c-1.98,0-3.91,0.8-5.3,2.2c-1.4,1.39-2.2,3.33-2.2,5.3s0.8,3.91,2.2,5.3C187.59,170.2,189.53,171,191.5,171z"/>
</g>
<g>
</g>
<g>
</g>
<g>
</g>
<g>
</g>
<g>
</g>
<g>
</g>
<g>
</g>
<g>
</g>
<g>
</g>
<g>
</g>
<g>
</g>
<g>
</g>
<g>
</g>
<g>
</g>
<g>
</g>
</svg>
