<?xml version="1.0" encoding="UTF-8"?>
<svg xmlns="http://www.w3.org/2000/svg" width="512" height="512" viewBox="0 0 512 512"><g><path d="M205.7,148.345l-7,50.514a8,8,0,0,0,11.417,8.295L256,184.892l45.882,22.262a8,8,0,0,0,11.417-8.295l-7-50.514,35.35-36.756a8,8,0,0,0-4.36-13.422l-50.2-8.957L263.056,44.229a8,8,0,0,0-14.112,0L224.911,89.21l-50.205,8.957a8,8,0,0,0-4.36,13.422Zm25.847-44.066a8,8,0,0,0,5.65-4.1L256,64.976l18.807,35.2a8,8,0,0,0,5.65,4.1l39.287,7.01-27.663,28.762a8,8,0,0,0-2.159,6.643l5.474,39.53-35.9-17.421a7.994,7.994,0,0,0-6.984,0l-35.9,17.421,5.474-39.53a8,8,0,0,0-2.159-6.643l-27.663-28.762Z"/><path d="M45.7,196.345,38.7,246.859a8,8,0,0,0,11.416,8.295L96,232.892l45.882,22.262a8,8,0,0,0,11.417-8.295l-7-50.514,35.35-36.756a8,8,0,0,0-4.36-13.422l-50.205-8.957L103.056,92.229a8,8,0,0,0-14.112,0L64.911,137.21l-50.2,8.957a8,8,0,0,0-4.361,13.422Zm25.846-44.066a8,8,0,0,0,5.651-4.1L96,112.976l18.807,35.2a8,8,0,0,0,5.65,4.1l39.287,7.01-27.663,28.762a8,8,0,0,0-2.159,6.643l5.474,39.53L99.492,216.8a7.994,7.994,0,0,0-6.984,0L56.6,234.224l5.474-39.53a8,8,0,0,0-2.159-6.643L32.256,159.289Z"/><path d="M328.5,151.571a8,8,0,0,0,1.843,8.018l35.35,36.756-7,50.514a8,8,0,0,0,11.417,8.295L416,232.892l45.882,22.262a8,8,0,0,0,11.417-8.295l-7-50.514,35.35-36.756a8,8,0,0,0-4.36-13.422l-50.2-8.957L423.056,92.229a8,8,0,0,0-14.112,0L384.911,137.21l-50.2,8.957A8,8,0,0,0,328.5,151.571Zm63.04.708a8,8,0,0,0,5.65-4.1L416,112.976l18.807,35.2a8,8,0,0,0,5.65,4.1l39.287,7.01-27.663,28.762a8,8,0,0,0-2.159,6.643l5.474,39.53-35.9-17.421a7.994,7.994,0,0,0-6.984,0l-35.9,17.421,5.474-39.53a8,8,0,0,0-2.159-6.643l-27.663-28.762Z"/><path d="M476,264H36A28.032,28.032,0,0,0,8,292v88a28.032,28.032,0,0,0,28,28H219.056l29.789,59.578a8,8,0,0,0,14.31,0L292.944,408H476a28.032,28.032,0,0,0,28-28V292A28.032,28.032,0,0,0,476,264Zm12,116a12.013,12.013,0,0,1-12,12H288a8,8,0,0,0-7.155,4.422L256,446.111l-24.845-49.689A8,8,0,0,0,224,392H36a12.013,12.013,0,0,1-12-12V292a12.013,12.013,0,0,1,12-12H476a12.013,12.013,0,0,1,12,12Z"/></g></svg>
