<svg height="512pt" viewBox="0 -11 512.00039 512" width="512pt" xmlns="http://www.w3.org/2000/svg"><path d="m502 251.8125h-25.222656c-3.082032 0-5.992188 1.421875-7.886719 3.851562l-15.210937 19.503907c-3.398438 4.355469-2.621094 10.636719 1.734374 14.035156 1.828126 1.425781 3.992188 2.113281 6.144532 2.113281 2.976562 0 5.917968-1.320312 7.890625-3.847656l12.210937-15.652344h20.339844c5.523438 0 10-4.476562 10-10 0-5.523437-4.476562-10.003906-10-10.003906zm0 0"/><path d="m420.53125 333.921875c-4.355469-3.394531-10.636719-2.621094-14.035156 1.734375l-14.0625 18.03125h-43.78125l-34.96875-119.8125c10.195312-3.878906 17.457031-13.75 17.457031-25.289062 0-14.914063-12.132813-27.050782-27.050781-27.050782h-5.683594l-7.246094-24.832031c-1.550781-5.300781-7.105468-8.34375-12.402344-6.796875-5.300781 1.546875-8.34375 7.097656-6.796874 12.398438l5.613281 19.230468h-5.332031l-37.152344-35.457031c.789062-.496094 1.574218-1.007813 2.339844-1.550781 10.574218-7.484375 17.597656-18.636719 19.777343-31.40625 2.183594-12.765625-.738281-25.617188-8.222656-36.1875-7.484375-10.574219-18.636719-17.59375-31.40625-19.777344-26.355469-4.507812-51.460937 13.273438-55.964844 39.628906-2.71875 15.898438 2.683594 31.339844 13.179688 42.082032-2.785157 1.308593-5.402344 2.832031-7.835938 4.550781-4.6875-9.796875-13.753906-17.273438-25.054687-19.300781-8.984375-1.609376-18.050782.40625-25.535156 5.683593-7.648438 5.394531-12.722657 13.511719-14.277344 22.855469-1 5.996094-.425782 11.910156 1.417968 17.300781-.488281.234375-.960937.496094-1.40625.808594-2.179687 1.523437-3.664062 3.855469-4.121093 6.480469l-14.050781 80.671875c-2.527344 14.53125 6.828124 28.402343 20.855468 30.914062l16.839844 3.019531c1.519531.273438 3.027344.40625 4.519531.40625 1.121094 0 2.222657-.097656 3.3125-.242187l-3.117187 47.859375-24.269532 50.058594c-2.300781 4.753906-3.46875 9.835937-3.46875 15.097656 0 5.128906 1.171876 10.109375 3.28125 14.625h-11.609374c-1.90625 0-3.773438.546875-5.378907 1.570312l-80.269531 51.1875c-4.65625 2.96875-6.023438 9.152344-3.054688 13.808594 1.90625 2.988282 5.140626 4.625 8.441407 4.625 1.839843 0 3.699219-.507812 5.367187-1.570312l77.808594-49.621094h38.078125c.652344.039062 1.300781.058594 1.949219.058594.539062 0 1.074218-.03125 1.609375-.058594h106.625c2.5625 0 5.027343-.984375 6.886719-2.75l66.535156-63.214844h26.21875.058594.035156 56.132812c3.078125 0 5.988282-1.421875 7.882813-3.851562l17.066406-21.878906c3.398437-4.359376 2.621094-10.640626-1.734375-14.039063zm-250.183594-36.785156c-3.871094-.664063-8.15625-.949219-11.675781-2.800781-6.222656-3.277344-9.378906-10.222657-8.226563-17.0625.320313-1.894532.648438-3.792969.972657-5.6875 29.007812-1.347657 49.246093-9.503907 62.804687-18.207032l-2.34375 13.71875c-.75 4.394532 1.5 8.757813 5.515625 10.695313l35.597657 17.152343 41.363281 52.214844c5.023437 6.34375 3.953125 15.589844-2.390625 20.613282-6.339844 5.023437-15.585938 3.949218-20.609375-2.390626l-35.75-45.125c-.9375-1.1875-2.136719-2.144531-3.496094-2.800781l-30.128906-14.519531c-.84375-.40625-1.738281-.691406-2.65625-.847656zm139.683594 37.605469-42.796875-54.027344c-.703125-.882813-1.542969-1.632813-2.480469-2.226563-.328125-.207031-.675781-.402343-1.035156-.574219l-30.855469-14.871093 4.683594-27.40625h55.816406l34.453125 118.050781h-10.398437c-.488281-6.6875-2.914063-13.304688-7.386719-18.945312zm-41.792969-133.207032h22.605469c.019531 0 .039062.003906.058594.003906.011718 0 .023437-.003906.035156-.003906h13.152344c3.890625 0 7.050781 3.164063 7.050781 7.050782 0 3.886718-3.160156 7.050781-7.050781 7.050781h-3.039063c-.011719 0-.023437 0-.03125 0h-68.195312l-20.21875-17.425781c-4.1875-3.601563-10.5-3.132813-14.105469 1.050781-3.605469 4.183593-3.136719 10.496093 1.046875 14.101562l15.816406 13.628907c-7.914062 8.21875-25.972656 21.757812-60.484375 24.351562l3.675782-21.503906 6.945312-40.617188c.003906-.027344.003906-.054687.007812-.082031l2.058594-12.046875c1.996094-11.667969 11.949219-23.921875 33.859375-23.921875.503907 0 1.011719.007813 1.53125.019531.082031.003906.167969.003906.25.003906 6.859375 0 13.023438 2.367188 17.347657 6.660157.128906.128906.261718.253906.394531.375l40.382812 38.539062c1.863281 1.777344 4.335938 2.765625 6.90625 2.765625zm-86.910156-101.382812c2.371094-13.867188 14.445313-23.691406 28.066406-23.691406 1.589844 0 3.199219.132812 4.816407.410156 7.5 1.28125 14.050781 5.40625 18.449218 11.617187 4.398438 6.210938 6.117188 13.765625 4.832032 21.265625-2.367188 13.867188-14.445313 23.695313-28.066407 23.691406-1.589843 0-3.199219-.132812-4.816406-.410156-15.484375-2.644531-25.929687-17.398437-23.28125-32.882812zm-59.511719 55.792968c.671875-4.03125 2.828125-7.511718 6.074219-9.800781 2.390625-1.683593 5.167969-2.5625 8.011719-2.5625.820312 0 1.644531.074219 2.46875.222657 7.914062 1.417968 13.234375 9.265624 11.863281 17.488281-.671875 4.03125-2.832031 7.511719-6.078125 9.800781-3.078125 2.171875-6.796875 3-10.476562 2.34375-7.914063-1.421875-13.238282-9.269531-11.863282-17.492188zm3.339844 116.222657-16.839844-3.023438c-3.230468-.578125-5.332031-4.078125-4.683594-7.800781l12.324219-70.765625 28.152344 5.050781-4.746094 27.773438-7.5625 44.21875c-.992187 3.070312-3.84375 5.046875-6.644531 4.546875zm1.714844 146.082031c-5.101563-2.472656-8.269532-7.539062-8.269532-13.222656 0-2.21875.496094-4.367188 1.46875-6.375l25.117188-51.8125c.566406-1.160156.898438-2.421875.980469-3.710938l2.066406-31.691406c7.539063 4.320312 16.527344 5.03125 24.957031 6.476562 1.585938.269532 3.171875.542969 4.757813.8125l-2.25 32.429688-29.226563 60.292969c-2.355468 4.855469-7.058594 7.816406-12.089844 8.207031h-2.269531c-1.773437-.140625-3.546875-.585938-5.242187-1.40625zm110.582031 1.40625h-72.734375l29.820312-61.515625c.207032-.425781.378907-.859375.523438-1.304687.242188-.753907.398438-1.550782.457031-2.375l2.175781-31.386719 23.660157 11.402343 34.324219 43.324219c3.945312 4.980469 8.996093 8.578125 14.527343 10.734375zm0 0"/><path d="m388.351562 129.78125h51.164063c21.171875 0 38.398437-17.226562 38.398437-38.402344 0-21.171875-17.226562-38.398437-38.398437-38.398437-5.113281 0-10.144531 1.023437-14.804687 2.96875-8.554688-11.125-21.910157-17.902344-36.359376-17.902344-25.292968 0-45.867187 20.574219-45.867187 45.867187 0 12.25 4.769531 23.769532 13.433594 32.433594 8.664062 8.664063 20.179687 13.433594 32.433593 13.433594zm0-71.734375c10.304688 0 19.621094 6.109375 23.734376 15.570313 1.257812 2.894531 3.808593 5.027343 6.882812 5.75 3.070312.71875 6.304688-.050782 8.722656-2.082032 3.351563-2.816406 7.4375-4.304687 11.824219-4.304687 10.144531 0 18.398437 8.253906 18.398437 18.398437 0 10.148438-8.253906 18.402344-18.398437 18.402344h-51.164063c-6.910156 0-13.40625-2.691406-18.292968-7.578125-4.886719-4.882813-7.574219-11.378906-7.574219-18.289063 0-14.265624 11.605469-25.867187 25.867187-25.867187zm0 0"/><path d="m60.460938 104.5625c20.136718 0 36.519531-16.382812 36.519531-36.519531s-16.382813-36.519531-36.519531-36.519531c-9.753907 0-18.925782 3.796874-25.820313 10.695312-6.898437 6.898438-10.699219 16.070312-10.699219 25.824219 0 20.136719 16.386719 36.519531 36.519532 36.519531zm-11.679688-48.199219c3.121094-3.121093 7.269531-4.839843 11.679688-4.839843 9.109374 0 16.519531 7.410156 16.519531 16.519531s-7.410157 16.519531-16.519531 16.519531c-9.105469 0-16.519532-7.410156-16.519532-16.519531 0-4.414063 1.71875-8.5625 4.839844-11.679688zm0 0"/><path d="m5 47.792969 4.691406 2.707031c1.574219.910156 3.296875 1.34375 4.992188 1.34375 3.457031 0 6.816406-1.792969 8.667968-5.003906 2.761719-4.78125 1.125-10.898438-3.660156-13.660156l-4.691406-2.707032c-4.78125-2.761718-10.898438-1.125-13.660156 3.660156-2.757813 4.78125-1.121094 10.898438 3.660156 13.660157zm0 0"/><path d="m115.921875 88.738281-4.691406-2.707031c-4.78125-2.761719-10.898438-1.125-13.660157 3.660156-2.761718 4.78125-1.121093 10.898438 3.660157 13.660156l4.691406 2.707032c1.574219.910156 3.292969 1.34375 4.992187 1.34375 3.453126 0 6.816407-1.792969 8.667969-5.003906 2.761719-4.78125 1.121094-10.898438-3.660156-13.660157zm0 0"/><path d="m10.011719 107.402344c1.695312 0 3.417969-.433594 4.992187-1.34375l4.6875-2.707032c4.785156-2.761718 6.421875-8.875 3.660156-13.660156-2.761718-4.785156-8.875-6.421875-13.660156-3.660156l-4.691406 2.707031c-4.78125 2.761719-6.417969 8.878907-3.660156 13.660157 1.855468 3.210937 5.214844 5.003906 8.671875 5.003906zm0 0"/><path d="m106.242188 51.84375c1.695312 0 3.414062-.433594 4.988281-1.339844l4.691406-2.710937c4.785156-2.761719 6.421875-8.875 3.660156-13.660157-2.761719-4.78125-8.878906-6.421874-13.660156-3.660156l-4.691406 2.707032c-4.78125 2.761718-6.421875 8.878906-3.660157 13.664062 1.855469 3.207031 5.214844 5 8.671876 5zm0 0"/><path d="m60.460938 25.691406c5.523437 0 10-4.476562 10-10v-5.691406c0-5.523438-4.476563-10-10-10-5.523438 0-10 4.476562-10 10v5.691406c0 5.523438 4.476562 10 10 10zm0 0"/><path d="m50.460938 121.324219v5.691406c0 5.523437 4.476562 10 10 10 5.523437 0 10-4.476563 10-10v-5.691406c0-5.523438-4.476563-10-10-10-5.523438 0-10 4.480469-10 10zm0 0"/><path d="m446.25 306.859375c-1.613281-3.929687-5.714844-6.453125-9.949219-6.144531-4.15625.300781-7.746093 3.222656-8.894531 7.222656-1.152344 4.011719.394531 8.441406 3.78125 10.875 3.339844 2.394531 7.957031 2.460938 11.371094.1875 3.925781-2.605469 5.503906-7.792969 3.691406-12.140625zm0 0"/></svg>