<?xml version="1.0" encoding="iso-8859-1"?>
<!-- Generator: Adobe Illustrator 19.0.0, SVG Export Plug-In . SVG Version: 6.00 Build 0)  -->
<svg version="1.1" id="Layer_1" xmlns="http://www.w3.org/2000/svg" xmlns:xlink="http://www.w3.org/1999/xlink" x="0px" y="0px"
	 viewBox="0 0 461.152 461.152" style="enable-background:new 0 0 461.152 461.152;" xml:space="preserve">
<g>
	<polygon points="241.103,273.406 452.342,273.406 426.389,229.217 267.057,229.217 	"/>
	<polygon points="232.293,303.406 232.293,458.076 301.723,458.076 301.723,343.406 391.723,343.406 391.723,458.076 
		461.152,458.076 461.152,303.406 	"/>
	<rect x="331.723" y="373.406" width="30" height="84.67"/>
	<path d="M166.62,122.473c-24.813,0-45,20.187-45,45s20.187,45,45,45s45-20.187,45-45S191.433,122.473,166.62,122.473z"/>
	<path d="M249.885,199.217h80.724c1.723-9.585,2.632-19.448,2.632-29.522c0-91.874-74.746-166.619-166.62-166.619
		C74.745,3.076,0,77.821,0,169.695c0,38.93,13.421,74.781,35.878,103.177L166.62,437.25l35.674-44.851V280.248l4.132-7.035
		l34.763-59.189L249.885,199.217z M166.62,242.473c-41.355,0-75-33.645-75-75s33.645-75,75-75s75,33.645,75,75
		S207.975,242.473,166.62,242.473z"/>
</g>
<g>
</g>
<g>
</g>
<g>
</g>
<g>
</g>
<g>
</g>
<g>
</g>
<g>
</g>
<g>
</g>
<g>
</g>
<g>
</g>
<g>
</g>
<g>
</g>
<g>
</g>
<g>
</g>
<g>
</g>
</svg>
