<svg height="512" viewBox="0 0 128 128" width="512" xmlns="http://www.w3.org/2000/svg"><g id="Circle_Grid" data-name="Circle Grid"><circle cx="64" cy="64" fill="#f6c863" r="64"/></g><g id="icon"><rect fill="#575b6d" height="20.917" rx="1.564" width="6.744" x="74.263" y="20"/><rect fill="#575b6d" height="73.762" rx="3.181" width="34.014" x="46.993" y="34.238"/><rect fill="#828a9e" height="3.409" rx="1.704" width="11.069" x="58.465" y="102.311"/><g fill="#dbd8dd"><rect height="3.25" rx="1.625" width="6.036" x="51.44" y="95.505"/><rect height="3.25" rx="1.625" width="6.036" x="60.982" y="95.505"/><rect height="3.25" rx="1.625" width="6.036" x="70.524" y="95.505"/><rect height="3.25" rx="1.625" width="6.036" x="51.44" y="89.002"/><rect height="3.25" rx="1.625" width="6.036" x="60.982" y="89.002"/><rect height="3.25" rx="1.625" width="6.036" x="70.524" y="89.002"/><rect height="3.25" rx="1.625" width="6.036" x="51.44" y="82.5"/><rect height="3.25" rx="1.625" width="6.036" x="60.982" y="82.5"/><rect height="3.25" rx="1.625" width="6.036" x="70.524" y="82.5"/><rect height="3.25" rx="1.625" width="6.036" x="51.44" y="75.997"/><rect height="3.25" rx="1.625" width="6.036" x="60.982" y="75.997"/><rect height="3.25" rx="1.625" width="6.036" x="70.524" y="75.997"/><rect height="3.25" rx="1.625" width="6.036" x="51.44" y="69.494"/><rect height="3.25" rx="1.625" width="6.036" x="60.982" y="69.494"/><rect height="3.25" rx="1.625" width="6.036" x="70.524" y="69.494"/></g><rect fill="#69b0ee" height="18.965" rx="2.753" width="27.856" x="50.072" y="45.902"/><ellipse cx="64" cy="39.939" fill="#828a9e" rx="4.74" ry="1.564"/><g fill="#eeefee" opacity=".5"><path d="m54.485 64.866h-1.047l13.228-18.964h1.046z"/><path d="m61.334 64.866h-4.39l13.228-18.964h4.39z"/></g></g></svg>